<svg width="300px" height="80px" xmlns="http://www.w3.org/2000/svg" viewBox="66.02775878906252 14 367.94448242187497 122" style="background: rgba(0, 0, 0, 0);" preserveAspectRatio="xMidYMid"><defs><linearGradient id="editing-outline-gradient" x1="-0.41354545764260087" x2="1.4135454576426008" y1="0.09326335692419985" y2="0.9067366430758002"><stop offset="0" stop-color="#ee4208"></stop><stop offset="1" stop-color="#4139ff"></stop></linearGradient><filter id="editing-outline" x="-100%" y="-100%" width="300%" height="300%"><feMorphology in="SourceGraphic" operator="dilate" radius="1" result="outline"></feMorphology><feComposite operator="out" in="outline" in2="SourceAlpha"></feComposite></filter></defs><g filter="url(#editing-outline)"><g transform="translate(122.85103821754456, 97.39999961853027)"><path d="M14.21 0L0.51 0L8.32-42.05L8.32-42.05Q14.66-42.75 23.90-42.75L23.90-42.75L23.90-42.75Q33.15-42.75 37.44-40.06L37.44-40.06L37.44-40.06Q41.73-37.38 41.73-31.97L41.73-31.97L41.73-31.97Q41.73-26.56 38.94-23.17L38.94-23.17L38.94-23.17Q36.16-19.78 31.36-18.69L31.36-18.69L31.36-18.69Q32.45-13.38 34.94-9.09L34.94-9.09L34.94-9.09Q37.25-5.06 39.94-3.78L39.94-3.78L39.94-3.78Q38.98-1.09 37.02 0.10L37.02 0.10L37.02 0.10Q35.07 1.28 32.29 1.28L32.29 1.28L32.29 1.28Q29.50 1.28 27.33-0.35L27.33-0.35L27.33-0.35Q25.15-1.98 23.42-4.99L23.42-4.99L23.42-4.99Q19.78-11.52 19.39-21.82L19.39-21.82L19.84-21.82L19.84-21.82Q24.58-21.95 26.94-24.42L26.94-24.42L26.94-24.42Q29.31-26.88 29.31-32.06L29.31-32.06L29.31-32.06Q29.31-38.53 23.87-38.78L23.87-38.78L22.46-38.78L22.46-38.78Q21.89-38.78 21.57-38.72L21.57-38.72L14.21 0ZM70.59-10.82L70.59-10.82L70.59-10.82Q72.19-9.73 72.19-7.33L72.19-7.33L72.19-7.33Q72.19-4.93 70.98-3.39L70.98-3.39L70.98-3.39Q69.76-1.86 67.78-0.83L67.78-0.83L67.78-0.83Q63.68 1.28 59.26 1.28L59.26 1.28L59.26 1.28Q54.85 1.28 52.26 0.32L52.26 0.32L52.26 0.32Q49.66-0.64 47.94-2.43L47.94-2.43L47.94-2.43Q44.54-5.82 44.54-12.03L44.54-12.03L44.54-12.03Q44.54-21.70 49.79-27.58L49.79-27.58L49.79-27.58Q55.42-33.92 65.22-33.92L65.22-33.92L65.22-33.92Q71.30-33.92 74.30-31.36L74.30-31.36L74.30-31.36Q76.54-29.44 76.54-26.30L76.54-26.30L76.54-26.30Q76.54-15.04 57.09-15.04L57.09-15.04L57.09-15.04Q56.83-13.38 56.83-11.97L56.83-11.97L56.83-11.97Q56.83-9.02 58.14-7.90L58.14-7.90L58.14-7.90Q59.46-6.78 61.89-6.78L61.89-6.78L61.89-6.78Q64.32-6.78 66.91-7.90L66.91-7.90L66.91-7.90Q69.50-9.02 70.59-10.82ZM57.54-17.79L57.54-17.79L57.54-17.79Q62.08-17.79 64.70-20.61L64.70-20.61L64.70-20.61Q67.33-23.30 67.33-27.58L67.33-27.58L67.33-27.58Q67.33-29.06 66.78-29.86L66.78-29.86L66.78-29.86Q66.24-30.66 65.15-30.66L65.15-30.66L65.15-30.66Q64.06-30.66 63.14-30.24L63.14-30.24L63.14-30.24Q62.21-29.82 61.25-28.42L61.25-28.42L61.25-28.42Q58.88-25.22 57.54-17.79ZM105.79 1.28L105.79 1.28L105.79 1.28Q98.05 1.28 98.05-4.74L98.05-4.74L98.05-4.74Q98.11-6.40 98.62-9.22L98.62-9.22L99.78-15.10L99.78-15.10Q101.50-23.42 101.50-25.28L101.50-25.28L101.50-25.28Q101.50-28.99 99.33-28.99L99.33-28.99L99.33-28.99Q95.68-28.99 93.76-19.46L93.76-19.46L89.98 0L77.12 1.28L83.78-32.70L94.27-33.92L93.25-27.65L93.25-27.65Q96.26-33.92 105.47-33.92L105.47-33.92L105.47-33.92Q109.95-33.92 111.84-32.03L111.84-32.03L111.84-32.03Q113.73-30.14 113.73-25.92L113.73-25.92L113.73-25.92Q113.73-21.95 111.68-12.67L111.68-12.67L111.68-12.67Q110.72-8.51 110.72-6.94L110.72-6.94L110.72-6.94Q110.72-5.38 111.58-4.48L111.58-4.48L111.58-4.48Q112.45-3.58 113.73-3.46L113.73-3.46L113.73-3.46Q113.09-1.28 110.88 0L110.88 0L110.88 0Q108.67 1.28 105.79 1.28ZM119.87-6.40L119.87-6.40L119.87-6.40Q119.87-8.13 120.77-12.48L120.77-12.48L124.16-29.76L120.38-29.76L120.64-31.68L120.64-31.68Q128.32-33.98 135.74-39.62L135.74-39.62L138.82-39.62L137.28-32.64L142.27-32.64L141.70-29.76L136.77-29.76L133.50-12.48L133.50-12.48Q132.67-8.51 132.67-7.17L132.67-7.17L132.67-7.17Q132.67-4.10 135.36-3.46L135.36-3.46L135.36-3.46Q134.72-1.28 132.42 0L132.42 0L132.42 0Q130.11 1.28 126.85 1.28L126.85 1.28L126.85 1.28Q123.58 1.28 121.73-0.77L121.73-0.77L121.73-0.77Q119.87-2.82 119.87-6.40ZM175.36-13.25L175.36-13.25L175.36-13.25Q177.02-12.03 177.02-9.44L177.02-9.44L177.02-9.44Q177.02-6.85 175.90-5.02L175.90-5.02L175.90-5.02Q174.78-3.20 172.61-1.79L172.61-1.79L172.61-1.79Q167.94 1.22 159.78 1.22L159.78 1.22L159.78 1.22Q151.62 1.22 147.17-3.04L147.17-3.04L147.17-3.04Q142.72-7.30 142.72-14.85L142.72-14.85L142.72-14.85Q142.72-25.54 148.29-33.66L148.29-33.66L148.29-33.66Q152.51-39.68 160.06-42.24L160.06-42.24L160.06-42.24Q163.97-43.52 167.81-43.52L167.81-43.52L167.81-43.52Q171.65-43.52 174.02-43.01L174.02-43.01L174.02-43.01Q176.38-42.50 178.18-41.47L178.18-41.47L178.18-41.47Q182.08-39.23 182.08-35.65L182.08-35.65L182.08-35.65Q182.08-32.38 179.01-29.95L179.01-29.95L179.01-29.95Q176.19-27.78 173.89-27.78L173.89-27.78L173.89-27.78Q171.58-27.78 170.62-28.10L170.62-28.10L170.62-28.10Q170.88-30.40 170.88-31.90L170.88-31.90L170.88-31.90Q170.88-33.41 170.82-34.50L170.82-34.50L170.82-34.50Q170.75-35.58 170.43-36.61L170.43-36.61L170.43-36.61Q169.79-38.98 167.84-38.98L167.84-38.98L167.84-38.98Q165.89-38.98 163.94-37.15L163.94-37.15L163.94-37.15Q161.98-35.33 160.32-32.26L160.32-32.26L160.32-32.26Q156.54-25.28 156.54-17.02L156.54-17.02L156.54-17.02Q156.54-13.06 158.78-10.78L158.78-10.78L158.78-10.78Q161.02-8.51 165.82-8.51L165.82-8.51L165.82-8.51Q169.41-8.51 172.80-10.88L172.80-10.88L172.80-10.88Q174.27-11.90 175.36-13.25ZM185.12-1.92L185.12-1.92L185.12-1.92Q183.62-3.58 182.94-6.21L182.94-6.21L182.94-6.21Q182.27-8.83 182.27-13.12L182.27-13.12L182.27-13.12Q182.27-17.41 183.74-21.31L183.74-21.31L183.74-21.31Q185.22-25.22 187.90-28.03L187.90-28.03L187.90-28.03Q193.41-33.92 202.50-33.92L202.50-33.92L202.50-33.92Q205.76-33.92 208.13-32.83L208.13-32.83L219.07-33.92L214.34-8.96L214.34-8.96Q214.14-8.19 214.14-6.78L214.14-6.78L214.14-6.78Q214.14-5.38 215.01-4.48L215.01-4.48L215.01-4.48Q215.87-3.58 217.15-3.46L217.15-3.46L217.15-3.46Q216.51-1.28 214.18 0L214.18 0L214.18 0Q211.84 1.28 209.22 1.28L209.22 1.28L209.22 1.28Q206.59 1.28 204.83 0.29L204.83 0.29L204.83 0.29Q203.07-0.70 202.56-2.37L202.56-2.37L202.56-2.37Q201.54-0.77 199.36 0.26L199.36 0.26L199.36 0.26Q197.18 1.28 194.27 1.28L194.27 1.28L194.27 1.28Q191.36 1.28 188.99 0.51L188.99 0.51L188.99 0.51Q186.62-0.26 185.12-1.92ZM198.62-27.90L198.62-27.90L198.62-27.90Q197.89-26.75 197.25-24.80L197.25-24.80L197.25-24.80Q196.61-22.85 195.55-17.63L195.55-17.63L195.55-17.63Q194.50-12.42 194.50-8.70L194.50-8.70L194.50-8.70Q194.50-4.99 195.07-3.90L195.07-3.90L195.07-3.90Q195.65-2.82 196.67-2.82L196.67-2.82L196.67-2.82Q198.72-2.82 200.22-4.77L200.22-4.77L200.22-4.77Q201.73-6.72 202.30-10.18L202.30-10.18L205.70-28.93L205.70-28.93Q204.35-30.08 202.78-30.08L202.78-30.08L202.78-30.08Q201.22-30.08 200.29-29.57L200.29-29.57L200.29-29.57Q199.36-29.06 198.62-27.90ZM242.56-17.98L242.56-17.98L242.56-17.98Q244.86-22.08 244.86-26.24L244.86-26.24L244.86-26.24Q244.86-28.99 242.88-28.99L242.88-28.99L242.88-28.99Q241.34-28.99 239.74-26.37L239.74-26.37L239.74-26.37Q238.08-23.74 237.57-20.35L237.57-20.35L234.24 0L220.99 1.28L227.52-32.64L238.08-33.92L236.93-27.46L236.93-27.46Q240.06-33.92 247.10-33.92L247.10-33.92L247.10-33.92Q250.82-33.92 252.83-32L252.83-32L252.83-32Q254.85-30.08 254.85-26.14L254.85-26.14L254.85-26.14Q254.85-22.21 252.26-19.71L252.26-19.71L252.26-19.71Q249.66-17.22 245.25-17.22L245.25-17.22L245.25-17.22Q243.33-17.22 242.56-17.98Z" fill="url(#editing-outline-gradient)"></path></g></g><style>text {
  font-size: 64px;
  font-family: Arial Black;
  dominant-baseline: central;
  text-anchor: middle;
}</style></svg>